# xmcd
#
# Track frame offsets: 
#        150
#        20816
#        40739
#        72212
#        113244
#        158755
#        192749
#        223550
#        251758
#        283737
#        311804
#
# Disc length: 4544 seconds
#
# Revision: 0
# Processed by: cddbd v1.5.2PL0 Copyright (c) Steve Scherf et al.
# Submitted via: ExactAudioCopy v0.99pb5
#
DISCID=a811be0b
DTITLE=Various Artist - Fierce Angel 018: Fierce Disco 4 [CD3]
DYEAR=2010
DGENRE=House
TTITLE0=Grum - Can't Shake This Feeling [Grum Club Mix]
TTITLE1=Ocelot - Beating Hearts [Louis La Roche Remix]
TTITLE2=James Talk and Ridney - Forever [Extended Mix]
TTITLE3=Fierce Collective feat. Eric Kupper - Blue [EK's Extended Mix]
TTITLE4=Fierce Collective feat. Kiss N' Fly - River Flows In You [EK's
TTITLE4=Extended Mix]
TTITLE5=Meck feat. Dino - Feels Like A Prayer [Club Mix 2010]
TTITLE6=Sgt Slick - Everyday [Original Mix]
TTITLE7=Avicii and Sebastien Drums - My Feeling For You [Original Mix]
TTITLE8=Eric Chase - The Way It Is [Club Mix]
TTITLE9=Edward's World - Soul Roots 2010 [Mark Simmons 2010 Remix]
TTITLE10=Fierce Collective feat. Peyton - The Best Of You [Bassmonkeys
TTITLE10=Club Mix]
EXTD=
EXTT0=
EXTT1=
EXTT2=
EXTT3=
EXTT4=
EXTT5=
EXTT6=
EXTT7=
EXTT8=
EXTT9=
EXTT10=
PLAYORDER=
